<svg xmlns="http://www.w3.org/2000/svg" width="186" height="49" viewBox="0 0 186 49">
    <g fill="#EE3F3A" fill-rule="evenodd">
        <path d="M154.312 17.163c0-8.488 6.801-14.21 13.834-14.21 7.035 0 13.834 5.722 13.834 14.21a15.1 15.1 0 0 1-.516 3.939c1.172-2.016 1.828-4.314 1.828-6.94C183.292 6.097 176.494 0 168.146 0 159.799 0 153 6.097 153 14.162c0 2.626.657 4.924 1.829 6.94a15.058 15.058 0 0 1-.517-3.939"/>
        <path d="M185.045 18.095c0-1.079-.095-2.11-.281-3.095.093 9.707-7.645 15.054-16.742 20.212-9.097-5.158-16.835-10.505-16.743-20.212a16.736 16.736 0 0 0-.279 3.095c0 9.941 8.581 14.866 14.631 18.664-2.486 1.735-4.221 3.565-4.221 6.238 0 1.311.422 2.533 1.126 3.516-.235-.422-.282-.938-.282-1.454 0-3.235 3.985-5.674 5.768-6.705 1.782 1.031 5.768 3.47 5.768 6.705 0 .516-.048 1.032-.281 1.454a6.045 6.045 0 0 0 1.125-3.516c0-2.673-1.735-4.503-4.22-6.238 6.049-3.798 14.631-8.723 14.631-18.664"/>
        <path d="M168.174 45.955c-2.063 0-3.61-1.268-3.798-2.955-.282.516-.376 1.079-.376 1.687 0 2.299 1.689 3.753 4.174 3.753 2.486 0 4.174-1.454 4.174-3.753 0-.608-.094-1.171-.376-1.687-.187 1.687-1.735 2.955-3.798 2.955M144.569 32.54c-2.095 0-3.482.812-4.163 1.885v-1.597h-4.137v15.526h4.373V39.74c0-1.859 1.152-3.115 2.88-3.115 1.675 0 2.723 1.1 2.723 3.089v8.64h4.372v-9.478c0-4.032-2.487-6.336-6.074-6.336h.026zm-19.113 3.744c2.252 0 3.823 1.597 3.823 4.32 0 2.697-1.57 4.294-3.823 4.294-2.251 0-3.822-1.597-3.822-4.294 0-2.723 1.57-4.32 3.822-4.32zm0-3.744c-4.738 0-8.247 3.194-8.247 8.09 0 4.87 3.509 8.064 8.247 8.064 4.74 0 8.248-3.22 8.248-8.064 0-4.896-3.509-8.09-8.248-8.09zm-18.51 3.744c2.252 0 3.823 1.597 3.823 4.32 0 2.697-1.571 4.294-3.823 4.294-2.251 0-3.822-1.597-3.822-4.294 0-2.723 1.57-4.32 3.822-4.32zm0-3.744c-4.739 0-8.247 3.194-8.247 8.09 0 4.87 3.508 8.064 8.247 8.064s8.247-3.22 8.247-8.064c0-4.896-3.508-8.09-8.247-8.09zm-11.1-7.514h-4.373v23.328h4.372V25.026zm-8.038 0h-4.373v23.328h4.373V25.026zM75.424 42.123v.654c0 1.65-1.205 2.514-2.802 2.514-1.047 0-1.806-.393-1.806-1.414 0-1.1.942-1.571 2.251-1.623l2.33-.158.027.027zm-2.069-9.583c-4.005 0-6.493 2.828-6.493 5.55l4.373.184c0-1.021.654-2.042 2.173-2.042 1.361 0 2.016.838 2.016 2.409v.602l-2.776.157c-3.298.157-6.205 1.257-6.205 4.712 0 3.011 2.043 4.582 5.158 4.582 1.78 0 3.09-.68 3.954-1.597v1.257h4.241V38.77c0-4.084-2.278-6.257-6.467-6.257l.026.026zm-17.253 3.744c2.199 0 3.744 1.571 3.744 4.32 0 2.75-1.571 4.294-3.744 4.294s-3.666-1.44-3.666-3.953v-.681c0-2.487 1.493-3.954 3.666-3.954v-.026zm-3.666-11.258h-4.372v23.328h4.137v-1.597c.811 1.047 2.435 1.911 4.581 1.911 4.425 0 7.515-3.22 7.515-8.064 0-4.896-3.09-8.09-7.515-8.09-1.99 0-3.534.733-4.346 1.65V25v.026zM36.31 36.284c2.173 0 3.665 1.466 3.665 3.954v.68c0 2.514-1.492 3.954-3.665 3.954-2.2 0-3.744-1.545-3.744-4.294 0-2.775 1.57-4.32 3.744-4.32v.026zm8.011 12.07V25.026h-4.346v9.164c-.812-.943-2.383-1.65-4.372-1.65-4.373 0-7.488 3.194-7.488 8.09 0 4.87 3.09 8.064 7.488 8.064 2.199 0 3.822-.864 4.634-1.911v1.597h4.11l-.026-.026zm-25.946-12.41c1.99 0 2.933 1.23 3.037 3.115h-6.257c.13-1.99 1.361-3.115 3.22-3.115zm7.436 6.048v-1.754c0-4.844-2.933-7.724-7.41-7.724-4.634 0-7.906 3.063-7.906 8.09 0 4.975 3.272 8.064 8.011 8.064 3.64 0 6.598-2.094 7.148-5.053l-4.425-.21c-.34 1.074-1.309 1.702-2.854 1.702-1.99 0-3.141-1.23-3.246-3.141h10.656l.026.026zm-17.28-9.32c-2.382 0-3.613.89-4.268 1.91v-1.78H.022v15.526h4.371v-7.855c0-2.12 1.597-3.56 4.11-3.56h.289V32.67h-.288.026z"/>
    </g>
</svg>
